<?xml version="1.0" encoding="UTF-8"?>
<svg id="_レイヤー_1" data-name="レイヤー 1" xmlns="http://www.w3.org/2000/svg" viewBox="0 0 1041.17 156.8">
  <defs>
    <style>
      .cls-1 {
        fill: none;
        stroke: #e1e1e1;
        stroke-miterlimit: 10;
        stroke-width: 3px;
      }
    </style>
  </defs>
  <path class="cls-1" d="M1.5,3.9h99.4v24H28.7v41.2h63.2v24H28.7v59.8H1.5V3.9Z"/>
  <path class="cls-1" d="M108.7,3.9h27.2v125h63.8v24h-91V3.9Z"/>
  <path class="cls-1" d="M207.3,3.9h99v24h-71.8v38.2h67.8v24h-67.8v38.8h71.8v24h-99V3.9Z"/>
  <path class="cls-1" d="M311.9,78.3c0-44.4,31.6-76.8,74.4-76.8,31.8,0,55,18,62.8,39.2l-24.2,11.6c-5.8-15.4-19.6-26-38.6-26-28,0-47.2,21-47.2,52s19.8,52.2,47.8,52.2c22.6,0,42.2-14.2,42.2-37v-.6h-42.8v-23h70v15c0,46.2-34.2,70.4-69.4,70.4-42.6,0-75-32.6-75-77Z"/>
  <path class="cls-1" d="M467.9,3.9h99v24h-71.8v38.2h67.8v24h-67.8v38.8h71.8v24h-99V3.9Z"/>
  <path class="cls-1" d="M576.89,3.9h55.4c30.4,0,51.8,16.8,51.8,47,0,20.6-10.4,35.4-27,42.2l34.2,59.8h-30.8l-30.8-55h-25.6v55h-27.2V3.9ZM632.69,73.9c14.6,0,24.2-9,24.2-23s-9.6-23-24.2-23h-28.6v46h28.6Z"/>
  <path class="cls-1" d="M725.49,27.9h-38.6V3.9h104v24h-38v125h-27.4V27.9Z"/>
  <path class="cls-1" d="M797.49,3.9h99v24h-71.8v38.2h67.8v24h-67.8v38.8h71.8v24h-99V3.9Z"/>
  <path class="cls-1" d="M902.09,78.3c0-44.4,31.6-76.8,74.4-76.8,31.8,0,55,18,62.8,39.2l-24.4,11.4c-5.8-15-19.6-25.8-38.4-25.8-28,0-47.2,21-47.2,52s19.2,52.2,47.2,52.2c18.8,0,32.6-10.8,38.4-25.8l24.4,11.4c-7.8,21.2-31,39.2-62.8,39.2-42.6,0-74.4-32.6-74.4-77Z"/>
</svg>