<?xml version="1.0" encoding="UTF-8"?>
<svg id="_レイヤー_1" data-name="レイヤー 1" xmlns="http://www.w3.org/2000/svg" viewBox="0 0 1354.49 293.1">
  <defs>
    <style>
      .cls-1 {
        fill: #e1e1e1;
        stroke-width: 0px;
      }
    </style>
  </defs>
  <path class="cls-1" d="M0,3.6h149.1v36H40.8v61.8h94.8v36H40.8v89.7H0V3.6Z"/>
  <path class="cls-1" d="M168.9,0h39.3v227.1h-39.3V0Z"/>
  <path class="cls-1" d="M234.3,145.2c0-48.9,35.1-84.9,81-84.9,50.7,0,79.5,36.3,79.5,79.8,0,6-.6,12-2.1,16.5h-117.6c2.4,24,19.8,39.6,43.5,39.6,18,0,30.6-8.4,37.8-21l31.8,15.6c-9.9,23.4-36.6,39.9-69.9,39.9-50.1,0-84-37.8-84-85.5ZM276,126.6h76.8c-1.8-20.1-16.8-33.9-37.5-33.9s-34.8,12.3-39.3,33.9Z"/>
  <path class="cls-1" d="M423,245.4l36.6-13.8c4.8,15.3,19.8,25.5,40.5,25.5,23.7,0,40.5-14.1,40.5-38.1v-17.7c-11.4,12.6-27.6,19.2-47.1,19.2-45.9,0-79.2-34.5-79.2-80.4s33-79.8,78.3-79.8c21,0,37.8,7.5,50.1,22.5v-18.9h37.2v155.1c0,42.9-33.3,74.1-79.8,74.1-36.9,0-66.6-18.9-77.1-47.7ZM540.6,140.4c0-25.5-17.7-44.1-42.3-44.1s-43.2,18.9-43.2,44.1,18,43.8,43.2,43.8,42.3-18.3,42.3-43.8Z"/>
  <path class="cls-1" d="M606.3,145.2c0-48.9,35.1-84.9,81-84.9,50.7,0,79.5,36.3,79.5,79.8,0,6-.6,12-2.1,16.5h-117.6c2.4,24,19.8,39.6,43.5,39.6,18,0,30.6-8.4,37.8-21l31.8,15.6c-9.9,23.4-36.6,39.9-69.9,39.9-50.1,0-84-37.8-84-85.5ZM648,126.6h76.8c-1.8-20.1-16.8-33.9-37.5-33.9s-34.8,12.3-39.3,33.9Z"/>
  <path class="cls-1" d="M792.9,63.9h36.9v23.1c8.4-18.6,24-24.9,44.1-24.9h9.6v34.8h-14.1c-22.2,0-37.2,14.4-37.2,39.3v90.9h-39.3V63.9Z"/>
  <path class="cls-1" d="M918,171v-72h-28.2v-35.1h3c15.9,0,25.2-8.7,25.2-24.6v-12.6h39.3v37.2h37.5v35.1h-37.5v69.9c0,16.5,8.4,25.5,27.6,25.5,2.7,0,6.6-.3,10.5-.9v33.6c-5.7.9-13.5,1.8-19.5,1.8-36.9,0-57.9-21.3-57.9-57.9Z"/>
  <path class="cls-1" d="M1015.19,145.2c0-48.9,35.1-84.9,81-84.9,50.7,0,79.5,36.3,79.5,79.8,0,6-.6,12-2.1,16.5h-117.6c2.4,24,19.8,39.6,43.5,39.6,18,0,30.6-8.4,37.8-21l31.8,15.6c-9.9,23.4-36.6,39.9-69.9,39.9-50.1,0-84-37.8-84-85.5ZM1056.89,126.6h76.8c-1.8-20.1-16.8-33.9-37.5-33.9s-34.8,12.3-39.3,33.9Z"/>
  <path class="cls-1" d="M1195.19,145.2c0-48.3,36.3-84.9,85.2-84.9,34.8,0,63.9,19.5,74.1,48.3l-34.5,15c-6.3-16.5-21-27.3-39.6-27.3-25.8,0-44.4,20.7-44.4,49.2s18.6,49.2,44.4,49.2c18.9,0,33.3-10.5,39.6-27.6l34.5,15.6c-9.6,27.9-38.7,48-74.1,48-48.9,0-85.2-36.9-85.2-85.5Z"/>
</svg>