<?xml version="1.0" encoding="UTF-8"?>
<svg id="_レイヤー_1" data-name="レイヤー 1" xmlns="http://www.w3.org/2000/svg" viewBox="0 0 1037.79 153.8">
  <defs>
    <style>
      .cls-1 {
        fill: #e1e1e1;
        stroke-width: 0px;
      }
    </style>
  </defs>
  <path class="cls-1" d="M0,2.4h99.4v24H27.2v41.2h63.2v24H27.2v59.8H0V2.4Z"/>
  <path class="cls-1" d="M107.2,2.4h27.2v125h63.8v24h-91V2.4Z"/>
  <path class="cls-1" d="M205.8,2.4h99v24h-71.8v38.2h67.8v24h-67.8v38.8h71.8v24h-99V2.4Z"/>
  <path class="cls-1" d="M310.4,76.8c0-44.4,31.6-76.8,74.4-76.8,31.8,0,55,18,62.8,39.2l-24.2,11.6c-5.8-15.4-19.6-26-38.6-26-28,0-47.2,21-47.2,52s19.8,52.2,47.8,52.2c22.6,0,42.2-14.2,42.2-37v-.6h-42.8v-23h70v15c0,46.2-34.2,70.4-69.4,70.4-42.6,0-75-32.6-75-77Z"/>
  <path class="cls-1" d="M466.4,2.4h99v24h-71.8v38.2h67.8v24h-67.8v38.8h71.8v24h-99V2.4Z"/>
  <path class="cls-1" d="M575.39,2.4h55.4c30.4,0,51.8,16.8,51.8,47,0,20.6-10.4,35.4-27,42.2l34.2,59.8h-30.8l-30.8-55h-25.6v55h-27.2V2.4ZM631.19,72.4c14.6,0,24.2-9,24.2-23s-9.6-23-24.2-23h-28.6v46h28.6Z"/>
  <path class="cls-1" d="M723.99,26.4h-38.6V2.4h104v24h-38v125h-27.4V26.4Z"/>
  <path class="cls-1" d="M795.99,2.4h99v24h-71.8v38.2h67.8v24h-67.8v38.8h71.8v24h-99V2.4Z"/>
  <path class="cls-1" d="M900.59,76.8c0-44.4,31.6-76.8,74.4-76.8,31.8,0,55,18,62.8,39.2l-24.4,11.4c-5.8-15-19.6-25.8-38.4-25.8-28,0-47.2,21-47.2,52s19.2,52.2,47.2,52.2c18.8,0,32.6-10.8,38.4-25.8l24.4,11.4c-7.8,21.2-31,39.2-62.8,39.2-42.6,0-74.4-32.6-74.4-77Z"/>
</svg>