<?xml version="1.0" encoding="UTF-8"?>
<svg id="_レイヤー_1" data-name="レイヤー 1" xmlns="http://www.w3.org/2000/svg" xmlns:xlink="http://www.w3.org/1999/xlink" viewBox="0 0 223.93 68">
  <defs>
    <style>
      .cls-1 {
        clip-path: url(#clippath);
      }

      .cls-2 {
        fill: none;
      }

      .cls-2, .cls-3 {
        stroke-width: 0px;
      }

      .cls-3 {
        fill: #e1e1e1;
      }
    </style>
    <clipPath id="clippath">
      <rect class="cls-2" x=".08" width="161" height="68"/>
    </clipPath>
  </defs>
  <g class="cls-1">
    <g>
      <path class="cls-3" d="M60.66.29v8.59h-.86V.29h.86ZM63.07,5.72h-2.59v-.78h2.42c.62,0,1.11-.18,1.45-.55.34-.36.52-.84.52-1.42s-.17-1.06-.52-1.4c-.34-.34-.81-.51-1.4-.51h-2.84V.29h2.96c.55,0,1.03.11,1.43.34s.72.54.94.95c.22.41.33.88.33,1.42s-.11.99-.33,1.4-.53.74-.94.98c-.4.24-.88.35-1.43.35Z"/>
      <path class="cls-3" d="M70.02,3v.74h-.46c-.54,0-.96.16-1.28.49s-.47.77-.47,1.33v3.31h-.83V3.07h.78l.07,1.14h-.08c.08-.38.28-.68.59-.92s.69-.35,1.14-.35c.09,0,.18,0,.26.01.09,0,.18.02.28.05Z"/>
      <path class="cls-3" d="M70.49,5.98c0-.6.13-1.13.38-1.58.26-.46.61-.82,1.06-1.08.45-.26.95-.4,1.51-.4s1.07.13,1.52.4c.44.26.79.62,1.05,1.08.26.46.38.98.38,1.58s-.13,1.11-.38,1.57c-.26.46-.61.82-1.05,1.09-.44.26-.95.4-1.52.4s-1.06-.13-1.51-.4c-.45-.26-.8-.63-1.06-1.09s-.38-.98-.38-1.57ZM71.33,5.96c0,.46.09.86.27,1.21.18.35.43.62.74.82.32.2.68.29,1.1.29s.78-.1,1.1-.29c.32-.2.56-.47.74-.82s.27-.75.27-1.21-.09-.84-.27-1.19c-.18-.34-.43-.62-.74-.82s-.68-.3-1.1-.3-.78.1-1.1.3c-.32.2-.56.47-.74.82-.18.34-.27.74-.27,1.19Z"/>
      <path class="cls-3" d="M77.31,5.81c0-.53.11-1.01.32-1.45s.53-.79.94-1.05c.41-.26.9-.4,1.46-.4s1.02.14,1.42.41c.39.27.67.66.84,1.18l-.13.17.11-1.6h.72v5.63c0,.58-.12,1.08-.35,1.51-.23.43-.56.76-.98,1-.42.24-.91.35-1.48.35-.74,0-1.36-.2-1.85-.6-.49-.4-.79-.95-.91-1.64h.83c.09.47.3.84.64,1.1.34.26.77.39,1.3.39.6,0,1.08-.18,1.44-.55s.54-.86.54-1.46v-1.82l.12.16c-.17.49-.46.87-.87,1.16-.41.28-.89.43-1.45.43s-1.03-.13-1.43-.4c-.4-.26-.71-.61-.92-1.05-.21-.44-.32-.92-.32-1.45ZM78.14,5.8c0,.4.08.76.23,1.09.16.33.38.59.67.78.29.19.64.29,1.05.29s.77-.09,1.07-.28c.3-.19.53-.44.69-.77.16-.32.24-.69.24-1.11s-.08-.78-.23-1.1c-.16-.32-.38-.57-.67-.76-.29-.19-.65-.28-1.09-.28s-.77.1-1.06.29c-.29.2-.52.46-.67.78-.16.32-.23.68-.23,1.07Z"/>
      <path class="cls-3" d="M87.75,3v.74h-.46c-.54,0-.96.16-1.28.49s-.47.77-.47,1.33v3.31h-.83V3.07h.78l.07,1.14h-.08c.08-.38.28-.68.59-.92s.69-.35,1.14-.35c.09,0,.18,0,.26.01.09,0,.18.02.28.05Z"/>
      <path class="cls-3" d="M90.29,9.02c-.62,0-1.1-.16-1.45-.48s-.52-.73-.52-1.24c0-.54.19-.96.58-1.28.38-.32.92-.51,1.6-.56l1.92-.16v-.19c0-.38-.07-.69-.2-.91-.14-.22-.32-.37-.55-.46-.23-.09-.49-.13-.78-.13-.51,0-.91.11-1.19.32-.28.22-.42.52-.42.91h-.76c0-.39.1-.73.3-1.02.2-.29.48-.51.84-.67.36-.16.78-.24,1.25-.24s.86.08,1.2.23c.34.16.62.4.82.72.2.32.31.74.31,1.25v3.76h-.7l-.11-1.02c-.18.37-.45.65-.83.86s-.81.31-1.3.31ZM90.48,8.35c.62,0,1.09-.2,1.43-.59.34-.39.5-.9.5-1.52v-.31l-1.72.13c-.54.05-.94.18-1.18.41-.24.22-.36.5-.36.82,0,.35.12.62.36.8.24.18.56.27.96.27Z"/>
      <path class="cls-3" d="M95.71,8.88h-.83V3.07h.72l.12,1.09-.12-.04c.12-.37.35-.66.68-.88.33-.22.72-.33,1.17-.33.52,0,.95.14,1.3.43.35.28.57.67.67,1.16h-.18c.08-.49.3-.87.65-1.16.36-.28.8-.43,1.34-.43.62,0,1.13.19,1.51.58.38.38.58.91.58,1.58v3.8h-.8v-3.64c0-.5-.13-.88-.38-1.16-.26-.28-.61-.42-1.06-.42-.32,0-.6.07-.83.22s-.41.35-.53.59-.19.52-.19.82v3.59h-.82v-3.65c0-.5-.13-.88-.39-1.15-.26-.27-.61-.41-1.05-.41-.32,0-.6.07-.83.22s-.42.34-.54.58c-.12.24-.19.51-.19.81v3.6Z"/>
      <path class="cls-3" d="M105.81,8.88h-.83V3.07h.72l.12,1.09-.12-.04c.12-.37.35-.66.68-.88.33-.22.72-.33,1.17-.33.52,0,.95.14,1.3.43.35.28.57.67.67,1.16h-.18c.08-.49.3-.87.65-1.16.36-.28.8-.43,1.34-.43.62,0,1.13.19,1.51.58.38.38.58.91.58,1.58v3.8h-.8v-3.64c0-.5-.13-.88-.38-1.16-.26-.28-.61-.42-1.06-.42-.32,0-.6.07-.83.22s-.41.35-.53.59-.19.52-.19.82v3.59h-.82v-3.65c0-.5-.13-.88-.39-1.15-.26-.27-.61-.41-1.05-.41-.32,0-.6.07-.83.22s-.42.34-.54.58c-.12.24-.19.51-.19.81v3.6Z"/>
      <path class="cls-3" d="M115.5,1.48c-.17,0-.31-.06-.43-.18-.12-.12-.18-.26-.18-.43s.06-.31.18-.44c.12-.12.26-.19.43-.19s.31.06.44.19.19.27.19.44-.06.31-.19.43-.27.18-.44.18ZM115.09,8.88V3.07h.83v5.81h-.83Z"/>
      <path class="cls-3" d="M118.47,8.88h-.83V3.07h.72l.12,1.01c.19-.37.47-.65.82-.86.36-.2.75-.31,1.17-.31.8,0,1.38.22,1.73.66.35.44.53,1.02.53,1.75v3.55h-.83v-3.37c0-.68-.14-1.16-.43-1.43-.28-.27-.67-.41-1.15-.41-.59,0-1.05.2-1.37.59-.32.4-.49.92-.49,1.58v3.04Z"/>
      <path class="cls-3" d="M123.99,5.81c0-.53.11-1.01.32-1.45s.53-.79.94-1.05c.41-.26.9-.4,1.46-.4s1.02.14,1.42.41c.39.27.67.66.84,1.18l-.13.17.11-1.6h.72v5.63c0,.58-.12,1.08-.35,1.51-.23.43-.56.76-.98,1-.42.24-.91.35-1.48.35-.74,0-1.36-.2-1.85-.6-.49-.4-.79-.95-.91-1.64h.83c.09.47.3.84.64,1.1.34.26.77.39,1.3.39.6,0,1.08-.18,1.44-.55s.54-.86.54-1.46v-1.82l.12.16c-.17.49-.46.87-.87,1.16-.41.28-.89.43-1.45.43s-1.03-.13-1.43-.4c-.4-.26-.71-.61-.92-1.05-.21-.44-.32-.92-.32-1.45ZM124.82,5.8c0,.4.08.76.23,1.09.16.33.38.59.67.78.29.19.64.29,1.05.29s.77-.09,1.07-.28c.3-.19.53-.44.69-.77.16-.32.24-.69.24-1.11s-.08-.78-.23-1.1c-.16-.32-.38-.57-.67-.76-.29-.19-.65-.28-1.09-.28s-.77.1-1.06.29c-.29.2-.52.46-.67.78-.16.32-.23.68-.23,1.07Z"/>
      <path class="cls-3" d="M134,1.08V.29h6.16v.79h-6.16ZM137.51.67v8.21h-.86V.67h.86Z"/>
      <path class="cls-3" d="M142.71,9.02c-.56,0-1.05-.13-1.48-.38-.43-.26-.76-.61-1-1.07-.24-.46-.36-.99-.36-1.6s.12-1.13.35-1.59c.24-.46.56-.82.98-1.08.42-.26.9-.39,1.45-.39s.99.12,1.39.35c.4.23.7.55.92.97.22.41.33.89.33,1.45v.41h-4.97l.02-.6h4.12c0-.56-.17-1.01-.5-1.35-.33-.34-.77-.51-1.31-.51-.4,0-.75.09-1.05.28-.3.18-.53.45-.69.79-.16.34-.24.74-.24,1.21,0,.77.18,1.36.53,1.79.36.42.86.64,1.52.64.47,0,.86-.1,1.16-.3.3-.2.51-.49.61-.88h.79c-.15.61-.45,1.07-.89,1.4-.44.32-1,.49-1.69.49Z"/>
      <path class="cls-3" d="M148.22,9.02c-.62,0-1.1-.16-1.45-.48s-.52-.73-.52-1.24c0-.54.19-.96.58-1.28.38-.32.92-.51,1.6-.56l1.92-.16v-.19c0-.38-.07-.69-.2-.91-.14-.22-.32-.37-.55-.46-.23-.09-.49-.13-.78-.13-.51,0-.91.11-1.19.32-.28.22-.42.52-.42.91h-.76c0-.39.1-.73.3-1.02.2-.29.48-.51.84-.67.36-.16.78-.24,1.25-.24s.86.08,1.2.23c.34.16.62.4.82.72.2.32.31.74.31,1.25v3.76h-.7l-.11-1.02c-.18.37-.45.65-.83.86s-.81.31-1.3.31ZM148.41,8.35c.62,0,1.09-.2,1.43-.59.34-.39.5-.9.5-1.52v-.31l-1.72.13c-.54.05-.94.18-1.18.41-.24.22-.36.5-.36.82,0,.35.12.62.36.8.24.18.56.27.96.27Z"/>
      <path class="cls-3" d="M153.65,8.88h-.83V3.07h.72l.12,1.09-.12-.04c.12-.37.35-.66.68-.88.33-.22.72-.33,1.17-.33.52,0,.95.14,1.3.43.35.28.57.67.67,1.16h-.18c.08-.49.3-.87.65-1.16.36-.28.8-.43,1.34-.43.62,0,1.13.19,1.51.58.38.38.58.91.58,1.58v3.8h-.8v-3.64c0-.5-.13-.88-.38-1.16-.26-.28-.61-.42-1.06-.42-.32,0-.6.07-.83.22s-.41.35-.53.59-.19.52-.19.82v3.59h-.82v-3.65c0-.5-.13-.88-.39-1.15-.26-.27-.61-.41-1.05-.41-.32,0-.6.07-.83.22s-.42.34-.54.58c-.12.24-.19.51-.19.81v3.6Z"/>
      <path class="cls-3" d="M5.83,23.28l-2.56-8.59h.9l1.74,5.9c.06.21.12.42.17.65.05.22.11.48.16.77.07-.31.14-.57.2-.79s.13-.42.19-.63l1.87-5.9h.9l1.87,5.9c.06.22.13.44.19.67.06.23.13.48.19.75.06-.33.12-.6.18-.83.06-.22.11-.42.16-.58l1.78-5.92h.88l-2.58,8.59h-.82l-2.3-7.3-2.3,7.3h-.83Z"/>
      <path class="cls-3" d="M17.47,23.42c-.56,0-1.05-.13-1.48-.38-.43-.26-.76-.61-1-1.07-.24-.46-.36-.99-.36-1.6s.12-1.13.35-1.59c.24-.46.56-.82.98-1.08.42-.26.9-.39,1.45-.39s.99.12,1.39.35c.4.23.7.55.92.97.22.41.33.89.33,1.45v.41h-4.97l.02-.6h4.12c0-.56-.17-1.01-.5-1.35-.33-.34-.77-.51-1.31-.51-.4,0-.75.09-1.05.28-.3.18-.53.45-.69.79-.16.34-.24.74-.24,1.21,0,.77.18,1.36.53,1.79.36.42.86.64,1.52.64.47,0,.86-.1,1.16-.3.3-.2.51-.49.61-.88h.79c-.15.61-.45,1.07-.89,1.4-.44.32-1,.49-1.69.49Z"/>
      <path class="cls-3" d="M26.36,23.42c-.62,0-1.1-.16-1.45-.48s-.52-.73-.52-1.24c0-.54.19-.96.58-1.28.38-.32.92-.51,1.6-.56l1.92-.16v-.19c0-.38-.07-.69-.2-.91-.14-.22-.32-.37-.55-.46s-.49-.13-.78-.13c-.51,0-.91.11-1.19.32-.28.22-.42.52-.42.91h-.76c0-.39.1-.73.3-1.02.2-.29.48-.51.84-.67s.78-.24,1.25-.24.86.08,1.2.23c.34.16.62.4.82.72s.31.74.31,1.25v3.76h-.7l-.11-1.02c-.18.37-.45.65-.83.86s-.81.31-1.3.31ZM26.56,22.75c.62,0,1.09-.2,1.43-.59.34-.39.5-.9.5-1.52v-.31l-1.72.13c-.54.05-.94.18-1.18.41-.24.22-.36.5-.36.82,0,.35.12.62.36.8.24.18.56.27.96.27Z"/>
      <path class="cls-3" d="M34,17.4v.74h-.46c-.54,0-.96.16-1.28.49s-.47.77-.47,1.33v3.31h-.83v-5.81h.78l.07,1.14h-.08c.08-.38.28-.68.59-.92s.69-.35,1.14-.35c.09,0,.18,0,.26.01.09,0,.18.02.28.05Z"/>
      <path class="cls-3" d="M37.31,23.42c-.56,0-1.05-.13-1.48-.38-.43-.26-.76-.61-1-1.07-.24-.46-.36-.99-.36-1.6s.12-1.13.35-1.59c.24-.46.56-.82.98-1.08.42-.26.9-.39,1.45-.39s.99.12,1.39.35c.4.23.7.55.92.97.22.41.33.89.33,1.45v.41h-4.97l.02-.6h4.12c0-.56-.17-1.01-.5-1.35-.33-.34-.77-.51-1.31-.51-.4,0-.75.09-1.05.28-.3.18-.53.45-.69.79-.16.34-.24.74-.24,1.21,0,.77.18,1.36.53,1.79.36.42.86.64,1.52.64.47,0,.86-.1,1.16-.3.3-.2.51-.49.61-.88h.79c-.15.61-.45,1.07-.89,1.4-.44.32-1,.49-1.69.49Z"/>
      <path class="cls-3" d="M46.81,23.42c-.56,0-1.04-.13-1.44-.4-.4-.26-.71-.63-.92-1.09-.22-.46-.32-.98-.32-1.55s.11-1.11.32-1.57c.22-.46.53-.83.93-1.1.4-.27.89-.4,1.47-.4.48,0,.91.1,1.28.31s.66.52.86.95v-4.04h.83v8.75h-.72l-.08-1.19c-.21.45-.5.78-.89,1-.38.22-.82.33-1.31.33ZM46.96,22.67c.43,0,.8-.1,1.09-.29.3-.2.52-.47.68-.82.16-.35.24-.75.24-1.19s-.08-.84-.24-1.19c-.16-.34-.39-.62-.68-.82s-.66-.3-1.09-.3-.77.1-1.07.3c-.3.2-.53.47-.68.82-.16.34-.23.74-.23,1.19s.08.85.23,1.19c.16.35.38.62.68.82.3.2.66.29,1.07.29Z"/>
      <path class="cls-3" d="M51.13,20.38c0-.6.13-1.13.38-1.58s.61-.82,1.06-1.08c.45-.26.95-.4,1.51-.4s1.07.13,1.52.4c.44.26.79.62,1.05,1.08.26.46.38.98.38,1.58s-.13,1.11-.38,1.57c-.26.46-.61.82-1.05,1.09-.44.26-.95.4-1.52.4s-1.06-.13-1.51-.4c-.45-.26-.8-.63-1.06-1.09s-.38-.98-.38-1.57ZM51.97,20.36c0,.46.09.86.27,1.21.18.35.43.62.74.82.32.2.68.29,1.1.29s.78-.1,1.1-.29c.32-.2.56-.47.74-.82s.27-.75.27-1.21-.09-.84-.27-1.19c-.18-.34-.43-.62-.74-.82s-.68-.3-1.1-.3-.78.1-1.1.3c-.32.2-.56.47-.74.82-.18.34-.27.74-.27,1.19Z"/>
      <path class="cls-3" d="M58.76,15.88c-.17,0-.31-.06-.43-.18-.12-.12-.18-.26-.18-.43s.06-.31.18-.44c.12-.12.26-.19.43-.19s.31.06.44.19.19.27.19.44-.06.31-.19.43-.27.18-.44.18ZM58.35,23.28v-5.81h.83v5.81h-.83Z"/>
      <path class="cls-3" d="M61.74,23.28h-.83v-5.81h.72l.12,1.01c.19-.37.47-.65.82-.86s.75-.31,1.17-.31c.8,0,1.38.22,1.73.66.35.44.53,1.02.53,1.75v3.55h-.83v-3.37c0-.68-.14-1.16-.43-1.43-.28-.27-.67-.41-1.15-.41-.59,0-1.05.2-1.37.59-.32.4-.49.92-.49,1.58v3.04Z"/>
      <path class="cls-3" d="M67.26,20.21c0-.53.11-1.01.32-1.45.22-.44.53-.79.94-1.05.41-.26.9-.4,1.46-.4s1.02.14,1.42.41c.39.27.67.66.84,1.18l-.13.17.11-1.6h.72v5.63c0,.58-.12,1.08-.35,1.51-.23.43-.56.76-.98,1-.42.24-.91.35-1.48.35-.74,0-1.36-.2-1.85-.6-.49-.4-.79-.95-.91-1.64h.83c.09.47.3.84.64,1.1.34.26.77.39,1.3.39.6,0,1.08-.18,1.44-.55s.54-.86.54-1.46v-1.82l.12.16c-.17.49-.46.87-.87,1.16-.41.28-.89.43-1.45.43s-1.03-.13-1.43-.4c-.4-.26-.71-.61-.92-1.05-.21-.44-.32-.92-.32-1.45ZM68.09,20.2c0,.4.08.76.23,1.09.16.33.38.59.67.78.29.19.64.29,1.05.29s.77-.09,1.07-.28c.3-.19.53-.44.69-.77.16-.32.24-.69.24-1.11s-.08-.78-.23-1.1c-.16-.32-.38-.57-.67-.76-.29-.19-.65-.28-1.09-.28s-.77.1-1.06.29c-.29.2-.52.46-.67.78-.16.32-.23.68-.23,1.07Z"/>
      <path class="cls-3" d="M79.86,23.28l-2.56-8.59h.9l1.74,5.9c.06.21.12.42.17.65.05.22.11.48.16.77.07-.31.14-.57.2-.79s.13-.42.19-.63l1.87-5.9h.9l1.87,5.9c.06.22.13.44.19.67.06.23.13.48.19.75.06-.33.12-.6.18-.83.06-.22.11-.42.16-.58l1.78-5.92h.88l-2.58,8.59h-.82l-2.3-7.3-2.3,7.3h-.83Z"/>
      <path class="cls-3" d="M91.5,23.42c-.56,0-1.05-.13-1.48-.38-.43-.26-.76-.61-1-1.07-.24-.46-.36-.99-.36-1.6s.12-1.13.35-1.59c.24-.46.56-.82.98-1.08.42-.26.9-.39,1.45-.39s.99.12,1.39.35c.4.23.7.55.92.97.22.41.33.89.33,1.45v.41h-4.97l.02-.6h4.12c0-.56-.17-1.01-.5-1.35-.33-.34-.77-.51-1.31-.51-.4,0-.75.09-1.05.28-.3.18-.53.45-.69.79-.16.34-.24.74-.24,1.21,0,.77.18,1.36.53,1.79.36.42.86.64,1.52.64.47,0,.86-.1,1.16-.3.3-.2.51-.49.61-.88h.79c-.15.61-.45,1.07-.89,1.4-.44.32-1,.49-1.69.49Z"/>
      <path class="cls-3" d="M96.12,23.28h-.72v-8.75h.83v4.07c.2-.43.49-.75.87-.97.38-.21.82-.32,1.31-.32.57,0,1.05.13,1.45.4.4.27.7.63.91,1.1s.32.99.32,1.57-.11,1.09-.32,1.55-.52.82-.92,1.09c-.4.26-.88.4-1.45.4-.48,0-.91-.11-1.3-.33-.38-.22-.68-.55-.89-1l-.08,1.19ZM96.24,20.36c0,.45.08.85.24,1.19.16.35.39.62.69.82.3.2.66.29,1.09.29s.78-.1,1.08-.29c.3-.2.52-.47.68-.82.16-.35.23-.75.23-1.19s-.08-.84-.23-1.19c-.16-.34-.38-.62-.68-.82s-.66-.3-1.08-.3-.79.1-1.09.3c-.3.2-.53.47-.69.82-.16.34-.24.74-.24,1.19Z"/>
      <path class="cls-3" d="M105.73,25.81v-8.34h.72l.08,1.18c.21-.45.51-.78.89-1,.39-.22.82-.33,1.3-.33.56,0,1.04.13,1.44.4.4.26.71.62.92,1.08s.32.98.32,1.56-.11,1.11-.32,1.57c-.21.46-.52.83-.91,1.1-.4.27-.88.4-1.46.4-.5,0-.93-.11-1.31-.32-.38-.21-.66-.53-.86-.94v3.65h-.83ZM106.57,20.38c0,.44.08.83.24,1.18.16.35.39.62.69.82.3.2.66.3,1.09.3s.78-.1,1.08-.3c.3-.2.52-.47.68-.82.16-.35.23-.74.23-1.18s-.08-.85-.23-1.19c-.16-.35-.38-.62-.68-.82s-.66-.29-1.08-.29-.79.1-1.09.29c-.3.2-.53.47-.69.82-.16.35-.24.75-.24,1.19Z"/>
      <path class="cls-3" d="M115.77,17.4v.74h-.46c-.54,0-.96.16-1.28.49s-.47.77-.47,1.33v3.31h-.83v-5.81h.78l.07,1.14h-.08c.08-.38.28-.68.59-.92s.69-.35,1.14-.35c.09,0,.18,0,.26.01.09,0,.18.02.28.05Z"/>
      <path class="cls-3" d="M116.24,20.38c0-.6.13-1.13.38-1.58s.61-.82,1.06-1.08c.45-.26.95-.4,1.51-.4s1.07.13,1.52.4c.44.26.79.62,1.05,1.08.26.46.38.98.38,1.58s-.13,1.11-.38,1.57c-.26.46-.61.82-1.05,1.09-.44.26-.95.4-1.52.4s-1.06-.13-1.51-.4c-.45-.26-.8-.63-1.06-1.09s-.38-.98-.38-1.57ZM117.08,20.36c0,.46.09.86.27,1.21.18.35.43.62.74.82.32.2.68.29,1.1.29s.78-.1,1.1-.29c.32-.2.56-.47.74-.82s.27-.75.27-1.21-.09-.84-.27-1.19c-.18-.34-.43-.62-.74-.82s-.68-.3-1.1-.3-.78.1-1.1.3c-.32.2-.56.47-.74.82-.18.34-.27.74-.27,1.19Z"/>
      <path class="cls-3" d="M125.75,23.42c-.56,0-1.04-.13-1.44-.4-.4-.26-.71-.63-.92-1.09-.22-.46-.32-.98-.32-1.55s.11-1.11.32-1.57c.22-.46.53-.83.93-1.1.4-.27.89-.4,1.47-.4.48,0,.91.1,1.28.31s.66.52.86.95v-4.04h.83v8.75h-.72l-.08-1.19c-.21.45-.5.78-.89,1-.38.22-.82.33-1.31.33ZM125.89,22.67c.43,0,.8-.1,1.09-.29.3-.2.52-.47.68-.82.16-.35.24-.75.24-1.19s-.08-.84-.24-1.19c-.16-.34-.39-.62-.68-.82s-.66-.3-1.09-.3-.77.1-1.07.3c-.3.2-.53.47-.68.82-.16.34-.23.74-.23,1.19s.08.85.23,1.19c.16.35.38.62.68.82.3.2.66.29,1.07.29Z"/>
      <path class="cls-3" d="M134.55,17.47h.83v5.81h-.72l-.11-.98c-.16.34-.43.61-.8.82s-.79.31-1.24.31c-.68,0-1.2-.22-1.57-.65s-.55-1-.55-1.7v-3.61h.84v3.35c0,.69.14,1.17.43,1.45.28.28.65.42,1.11.42.56,0,1-.18,1.31-.55.31-.36.47-.89.47-1.58v-3.08Z"/>
      <path class="cls-3" d="M136.58,20.39c0-.61.12-1.14.35-1.6.24-.46.56-.82.98-1.08.42-.26.91-.39,1.47-.39.67,0,1.24.18,1.7.54.46.36.75.84.86,1.44h-.83c-.11-.4-.32-.71-.64-.92s-.67-.32-1.08-.32c-.38,0-.73.1-1.03.29-.3.19-.54.46-.71.81-.17.35-.26.76-.26,1.23s.08.87.24,1.21c.16.34.39.61.68.8.29.19.63.29,1.03.29.44,0,.82-.11,1.14-.33.32-.22.54-.52.65-.89h.84c-.09.39-.26.74-.5,1.03s-.55.53-.92.69c-.36.16-.77.25-1.21.25-.55,0-1.03-.13-1.45-.38s-.73-.61-.97-1.06c-.23-.46-.35-.99-.35-1.6Z"/>
      <path class="cls-3" d="M142.58,17.47h3.14v.7h-3.14v-.7ZM144.56,23.28h-.82v-7.64h.82v7.64Z"/>
      <path class="cls-3" d="M147.21,15.88c-.17,0-.31-.06-.43-.18-.12-.12-.18-.26-.18-.43s.06-.31.18-.44c.12-.12.26-.19.43-.19s.31.06.44.19.19.27.19.44-.06.31-.19.43-.27.18-.44.18ZM146.81,23.28v-5.81h.83v5.81h-.83Z"/>
      <path class="cls-3" d="M148.95,20.38c0-.6.13-1.13.38-1.58s.61-.82,1.06-1.08c.45-.26.95-.4,1.51-.4s1.07.13,1.52.4c.44.26.79.62,1.05,1.08.26.46.38.98.38,1.58s-.13,1.11-.38,1.57c-.26.46-.61.82-1.05,1.09-.44.26-.95.4-1.52.4s-1.06-.13-1.51-.4c-.45-.26-.8-.63-1.06-1.09s-.38-.98-.38-1.57ZM149.79,20.36c0,.46.09.86.27,1.21.18.35.43.62.74.82.32.2.68.29,1.1.29s.78-.1,1.1-.29c.32-.2.56-.47.74-.82s.27-.75.27-1.21-.09-.84-.27-1.19c-.18-.34-.43-.62-.74-.82s-.68-.3-1.1-.3-.78.1-1.1.3c-.32.2-.56.47-.74.82-.18.34-.27.74-.27,1.19Z"/>
      <path class="cls-3" d="M157.01,23.28h-.83v-5.81h.72l.12,1.01c.19-.37.47-.65.82-.86s.75-.31,1.17-.31c.8,0,1.38.22,1.73.66.35.44.53,1.02.53,1.75v3.55h-.83v-3.37c0-.68-.14-1.16-.43-1.43-.28-.27-.67-.41-1.15-.41-.59,0-1.05.2-1.37.59-.32.4-.49.92-.49,1.58v3.04Z"/>
      <path class="cls-3" d="M21.96,37.68l-2.56-8.59h.9l1.74,5.9c.06.21.12.42.17.65.05.22.11.48.16.77.07-.31.14-.57.2-.79s.13-.42.19-.63l1.87-5.9h.9l1.87,5.9c.06.22.13.44.19.67.06.23.13.48.19.75.06-.33.12-.6.18-.83.06-.22.11-.42.16-.58l1.78-5.92h.88l-2.58,8.59h-.82l-2.3-7.3-2.3,7.3h-.83Z"/>
      <path class="cls-3" d="M33.6,37.82c-.56,0-1.05-.13-1.48-.38-.43-.26-.76-.61-1-1.07-.24-.46-.36-.99-.36-1.6s.12-1.13.35-1.59c.24-.46.56-.82.98-1.08.42-.26.9-.39,1.45-.39s.99.12,1.39.35c.4.23.7.55.92.97.22.41.33.89.33,1.45v.41h-4.97l.02-.6h4.12c0-.56-.17-1.01-.5-1.35-.33-.34-.77-.51-1.31-.51-.4,0-.75.09-1.05.28-.3.18-.53.45-.69.79-.16.34-.24.74-.24,1.21,0,.77.18,1.36.53,1.79.36.42.86.64,1.52.64.47,0,.86-.1,1.16-.3.3-.2.51-.49.61-.88h.79c-.15.61-.45,1.07-.89,1.4-.44.32-1,.49-1.69.49Z"/>
      <path class="cls-3" d="M42.49,37.82c-.62,0-1.1-.16-1.45-.48s-.52-.73-.52-1.24c0-.54.19-.96.58-1.28.38-.32.92-.51,1.6-.56l1.92-.16v-.19c0-.38-.07-.69-.2-.91-.14-.22-.32-.37-.55-.46s-.49-.13-.78-.13c-.51,0-.91.11-1.19.32-.28.22-.42.52-.42.91h-.76c0-.39.1-.73.3-1.02.2-.29.48-.51.84-.67s.78-.24,1.25-.24.86.08,1.2.23c.34.16.62.4.82.72s.31.74.31,1.25v3.76h-.7l-.11-1.02c-.18.37-.45.65-.83.86s-.81.31-1.3.31ZM42.68,37.15c.62,0,1.09-.2,1.43-.59.34-.39.5-.9.5-1.52v-.31l-1.72.13c-.54.05-.94.18-1.18.41-.24.22-.36.5-.36.82,0,.35.12.62.36.8.24.18.56.27.96.27Z"/>
      <path class="cls-3" d="M50.12,31.8v.74h-.46c-.54,0-.96.16-1.28.49s-.47.77-.47,1.33v3.31h-.83v-5.81h.78l.07,1.14h-.08c.08-.38.28-.68.59-.92s.69-.35,1.14-.35c.09,0,.18,0,.26.01.09,0,.18.02.28.05Z"/>
      <path class="cls-3" d="M53.44,37.82c-.56,0-1.05-.13-1.48-.38-.43-.26-.76-.61-1-1.07-.24-.46-.36-.99-.36-1.6s.12-1.13.35-1.59c.24-.46.56-.82.98-1.08.42-.26.9-.39,1.45-.39s.99.12,1.39.35c.4.23.7.55.92.97.22.41.33.89.33,1.45v.41h-4.97l.02-.6h4.12c0-.56-.17-1.01-.5-1.35-.33-.34-.77-.51-1.31-.51-.4,0-.75.09-1.05.28-.3.18-.53.45-.69.79-.16.34-.24.74-.24,1.21,0,.77.18,1.36.53,1.79.36.42.86.64,1.52.64.47,0,.86-.1,1.16-.3.3-.2.51-.49.61-.88h.79c-.15.61-.45,1.07-.89,1.4-.44.32-1,.49-1.69.49Z"/>
      <path class="cls-3" d="M63.7,31.8v.74h-.46c-.54,0-.96.16-1.28.49s-.47.77-.47,1.33v3.31h-.83v-5.81h.78l.07,1.14h-.08c.08-.38.28-.68.59-.92s.69-.35,1.14-.35c.09,0,.18,0,.26.01.09,0,.18.02.28.05Z"/>
      <path class="cls-3" d="M67.01,37.82c-.56,0-1.05-.13-1.48-.38-.43-.26-.76-.61-1-1.07-.24-.46-.36-.99-.36-1.6s.12-1.13.35-1.59c.24-.46.56-.82.98-1.08.42-.26.9-.39,1.45-.39s.99.12,1.39.35c.4.23.7.55.92.97.22.41.33.89.33,1.45v.41h-4.97l.02-.6h4.12c0-.56-.17-1.01-.5-1.35-.33-.34-.77-.51-1.31-.51-.4,0-.75.09-1.05.28-.3.18-.53.45-.69.79-.16.34-.24.74-.24,1.21,0,.77.18,1.36.53,1.79.36.42.86.64,1.52.64.47,0,.86-.1,1.16-.3.3-.2.51-.49.61-.88h.79c-.15.61-.45,1.07-.89,1.4-.44.32-1,.49-1.69.49Z"/>
      <path class="cls-3" d="M70.5,34.79c0-.61.12-1.14.35-1.6.24-.46.56-.82.98-1.08.42-.26.91-.39,1.47-.39.67,0,1.24.18,1.7.54.46.36.75.84.86,1.44h-.83c-.11-.4-.32-.71-.64-.92s-.67-.32-1.08-.32c-.38,0-.73.1-1.03.29-.3.19-.54.46-.71.81-.17.35-.26.76-.26,1.23s.08.87.24,1.21c.16.34.39.61.68.8.29.19.63.29,1.03.29.44,0,.82-.11,1.14-.33.32-.22.54-.52.65-.89h.84c-.09.39-.26.74-.5,1.03s-.55.53-.92.69c-.36.16-.77.25-1.21.25-.55,0-1.03-.13-1.45-.38s-.73-.61-.97-1.06c-.23-.46-.35-.99-.35-1.6Z"/>
      <path class="cls-3" d="M80.18,31.8v.74h-.46c-.54,0-.96.16-1.28.49s-.47.77-.47,1.33v3.31h-.83v-5.81h.78l.07,1.14h-.08c.08-.38.28-.68.59-.92s.69-.35,1.14-.35c.09,0,.18,0,.26.01.09,0,.18.02.28.05Z"/>
      <path class="cls-3" d="M85.37,31.87h.83v5.81h-.72l-.11-.98c-.16.34-.43.61-.8.82s-.79.31-1.24.31c-.68,0-1.2-.22-1.57-.65s-.55-1-.55-1.7v-3.61h.84v3.35c0,.69.14,1.17.43,1.45.28.28.65.42,1.11.42.56,0,1-.18,1.31-.55.31-.36.47-.89.47-1.58v-3.08Z"/>
      <path class="cls-3" d="M88.33,30.28c-.17,0-.31-.06-.43-.18-.12-.12-.18-.26-.18-.43s.06-.31.18-.44c.12-.12.26-.19.43-.19s.31.06.44.19.19.27.19.44-.06.31-.19.43-.27.18-.44.18ZM87.92,37.68v-5.81h.83v5.81h-.83Z"/>
      <path class="cls-3" d="M89.83,31.87h3.14v.7h-3.14v-.7ZM91.81,37.68h-.82v-7.64h.82v7.64Z"/>
      <path class="cls-3" d="M94.46,30.28c-.17,0-.31-.06-.43-.18-.12-.12-.18-.26-.18-.43s.06-.31.18-.44c.12-.12.26-.19.43-.19s.31.06.44.19.19.27.19.44-.06.31-.19.43-.27.18-.44.18ZM94.05,37.68v-5.81h.83v5.81h-.83Z"/>
      <path class="cls-3" d="M97.44,37.68h-.83v-5.81h.72l.12,1.01c.19-.37.47-.65.82-.86s.75-.31,1.17-.31c.8,0,1.38.22,1.73.66.35.44.53,1.02.53,1.75v3.55h-.83v-3.37c0-.68-.14-1.16-.43-1.43-.28-.27-.67-.41-1.15-.41-.59,0-1.05.2-1.37.59-.32.4-.49.92-.49,1.58v3.04Z"/>
      <path class="cls-3" d="M102.96,34.61c0-.53.11-1.01.32-1.45.22-.44.53-.79.94-1.05.41-.26.9-.4,1.46-.4s1.02.14,1.42.41c.39.27.67.66.84,1.18l-.13.17.11-1.6h.72v5.63c0,.58-.12,1.08-.35,1.51-.23.43-.56.76-.98,1-.42.24-.91.35-1.48.35-.74,0-1.36-.2-1.85-.6-.49-.4-.79-.95-.91-1.64h.83c.09.47.3.84.64,1.1.34.26.77.39,1.3.39.6,0,1.08-.18,1.44-.55s.54-.86.54-1.46v-1.82l.12.16c-.17.49-.46.87-.87,1.16-.41.28-.89.43-1.45.43s-1.03-.13-1.43-.4c-.4-.26-.71-.61-.92-1.05-.21-.44-.32-.92-.32-1.45ZM103.79,34.6c0,.4.08.76.23,1.09.16.33.38.59.67.78.29.19.64.29,1.05.29s.77-.09,1.07-.28c.3-.19.53-.44.69-.77.16-.32.24-.69.24-1.11s-.08-.78-.23-1.1c-.16-.32-.38-.57-.67-.76-.29-.19-.65-.28-1.09-.28s-.77.1-1.06.29c-.29.2-.52.46-.67.78-.16.32-.23.68-.23,1.07Z"/>
      <path class="cls-3" d="M114.51,37.68h-.83v-5.81h.72l.12,1.09-.12-.04c.12-.37.35-.66.68-.88.33-.22.72-.33,1.17-.33.52,0,.95.14,1.3.43.35.28.57.67.67,1.16h-.18c.08-.49.3-.87.65-1.16s.8-.43,1.34-.43c.62,0,1.13.19,1.51.58.38.38.58.91.58,1.58v3.8h-.8v-3.64c0-.5-.13-.88-.38-1.16-.26-.28-.61-.42-1.06-.42-.32,0-.6.07-.83.22-.23.15-.41.35-.53.59s-.19.52-.19.82v3.59h-.82v-3.65c0-.5-.13-.88-.39-1.15-.26-.27-.61-.41-1.05-.41-.32,0-.6.07-.83.22-.24.14-.42.34-.54.58s-.19.51-.19.81v3.6Z"/>
      <path class="cls-3" d="M126.23,37.82c-.56,0-1.05-.13-1.48-.38-.43-.26-.76-.61-1-1.07-.24-.46-.36-.99-.36-1.6s.12-1.13.35-1.59c.24-.46.56-.82.98-1.08.42-.26.9-.39,1.45-.39s.99.12,1.39.35c.4.23.7.55.92.97.22.41.33.89.33,1.45v.41h-4.97l.02-.6h4.12c0-.56-.17-1.01-.5-1.35-.33-.34-.77-.51-1.31-.51-.4,0-.75.09-1.05.28-.3.18-.53.45-.69.79-.16.34-.24.74-.24,1.21,0,.77.18,1.36.53,1.79.36.42.86.64,1.52.64.47,0,.86-.1,1.16-.3.3-.2.51-.49.61-.88h.79c-.15.61-.45,1.07-.89,1.4-.44.32-1,.49-1.69.49Z"/>
      <path class="cls-3" d="M130.95,37.68h-.83v-5.81h.72l.12,1.09-.12-.04c.12-.37.35-.66.68-.88.33-.22.72-.33,1.17-.33.52,0,.95.14,1.3.43.35.28.57.67.67,1.16h-.18c.08-.49.3-.87.65-1.16s.8-.43,1.34-.43c.62,0,1.13.19,1.51.58.38.38.58.91.58,1.58v3.8h-.8v-3.64c0-.5-.13-.88-.38-1.16-.26-.28-.61-.42-1.06-.42-.32,0-.6.07-.83.22-.23.15-.41.35-.53.59s-.19.52-.19.82v3.59h-.82v-3.65c0-.5-.13-.88-.39-1.15-.26-.27-.61-.41-1.05-.41-.32,0-.6.07-.83.22-.24.14-.42.34-.54.58s-.19.51-.19.81v3.6Z"/>
      <path class="cls-3" d="M140.95,37.68h-.72v-8.75h.83v4.07c.2-.43.49-.75.87-.97.38-.21.82-.32,1.31-.32.57,0,1.05.13,1.45.4.4.27.7.63.91,1.1s.32.99.32,1.57-.11,1.09-.32,1.55-.52.82-.92,1.09c-.4.26-.88.4-1.45.4-.48,0-.91-.11-1.3-.33-.38-.22-.68-.55-.89-1l-.08,1.19ZM141.07,34.76c0,.45.08.85.24,1.19.16.35.39.62.69.82.3.2.66.29,1.09.29s.78-.1,1.08-.29c.3-.2.52-.47.68-.82.16-.35.23-.75.23-1.19s-.08-.84-.23-1.19c-.16-.34-.38-.62-.68-.82s-.66-.3-1.08-.3-.79.1-1.09.3c-.3.2-.53.47-.69.82-.16.34-.24.74-.24,1.19Z"/>
      <path class="cls-3" d="M149.67,37.82c-.56,0-1.05-.13-1.48-.38-.43-.26-.76-.61-1-1.07-.24-.46-.36-.99-.36-1.6s.12-1.13.35-1.59c.24-.46.56-.82.98-1.08.42-.26.9-.39,1.45-.39s.99.12,1.39.35c.4.23.7.55.92.97.22.41.33.89.33,1.45v.41h-4.97l.02-.6h4.12c0-.56-.17-1.01-.5-1.35-.33-.34-.77-.51-1.31-.51-.4,0-.75.09-1.05.28-.3.18-.53.45-.69.79-.16.34-.24.74-.24,1.21,0,.77.18,1.36.53,1.79.36.42.86.64,1.52.64.47,0,.86-.1,1.16-.3.3-.2.51-.49.61-.88h.79c-.15.61-.45,1.07-.89,1.4-.44.32-1,.49-1.69.49Z"/>
      <path class="cls-3" d="M156.61,31.8v.74h-.46c-.54,0-.96.16-1.28.49s-.47.77-.47,1.33v3.31h-.83v-5.81h.78l.07,1.14h-.08c.08-.38.28-.68.59-.92s.69-.35,1.14-.35c.09,0,.18,0,.26.01.09,0,.18.02.28.05Z"/>
      <path class="cls-3" d="M157.22,36.05h.79c0,.34.12.6.36.8.24.2.56.29.96.29.45,0,.8-.09,1.05-.27.25-.18.38-.43.38-.74,0-.24-.07-.43-.2-.58-.14-.14-.38-.26-.72-.35l-1-.25c-.5-.13-.88-.32-1.13-.59-.25-.26-.37-.59-.37-.98,0-.34.09-.63.26-.88s.42-.45.74-.58c.32-.14.68-.2,1.1-.2s.76.07,1.07.22c.3.14.54.35.71.61.17.26.26.57.27.93h-.8c0-.34-.12-.61-.35-.79-.22-.18-.53-.28-.92-.28s-.72.08-.94.25c-.22.17-.33.41-.33.72,0,.45.32.75.95.91l1,.25c.5.13.87.32,1.11.56.24.25.35.58.35,1,0,.34-.09.65-.28.91-.18.26-.44.47-.77.61-.33.14-.72.21-1.16.21-.65,0-1.16-.16-1.55-.49-.38-.32-.58-.75-.58-1.29Z"/>
      <path class="cls-3" d="M6.92,63.5l.49.5-3.71,3.72-3.71-3.72.5-.5,2.86,2.86v-8.54h.71v8.54l2.86-2.86Z"/>
      <path class="cls-3" d="M15.78,63.5l.49.5-3.71,3.72-3.71-3.72.5-.5,2.86,2.86v-8.54h.71v8.54l2.86-2.86Z"/>
      <path class="cls-3" d="M24.64,63.5l.49.5-3.71,3.72-3.71-3.72.5-.5,2.86,2.86v-8.54h.71v8.54l2.86-2.86Z"/>
      <path class="cls-3" d="M38.38,60.12c0-.48.12-.9.36-1.25.24-.36.58-.63,1.01-.83.43-.2.94-.3,1.51-.3.52,0,.97.09,1.36.28.39.18.7.45.93.79.23.34.37.76.41,1.24h-.88c-.05-.48-.23-.85-.55-1.12-.32-.27-.75-.4-1.28-.4-.6,0-1.08.14-1.45.43-.37.29-.55.68-.55,1.16,0,.38.11.69.34.93.22.24.56.42,1.01.53l1.48.36c.67.16,1.18.43,1.52.81.34.38.52.86.52,1.45,0,.49-.12.92-.36,1.28-.24.37-.58.65-1.02.85-.44.2-.96.3-1.55.3-.55,0-1.04-.09-1.47-.28-.43-.18-.76-.45-1.01-.79-.24-.34-.39-.75-.43-1.21h.89c.02.46.22.82.59,1.09.37.27.84.4,1.43.4.63,0,1.13-.14,1.51-.43s.56-.68.56-1.16c0-.39-.11-.71-.33-.95-.22-.24-.56-.42-1.03-.53l-1.45-.36c-.67-.16-1.18-.43-1.53-.81-.35-.38-.52-.87-.52-1.46Z"/>
      <path class="cls-3" d="M49.15,66.61c-.8,0-1.5-.19-2.11-.56s-1.08-.89-1.42-1.55c-.34-.66-.51-1.44-.51-2.32s.17-1.65.52-2.32c.34-.67.82-1.19,1.44-1.56.62-.37,1.32-.56,2.12-.56.62,0,1.19.12,1.69.35.5.23.93.56,1.27.98.34.42.57.92.68,1.49h-.92c-.18-.62-.52-1.11-1.01-1.46-.49-.35-1.07-.53-1.75-.53-.62,0-1.17.15-1.65.45-.48.3-.84.72-1.1,1.26-.26.54-.39,1.17-.39,1.9s.13,1.34.4,1.88.63.97,1.1,1.27c.47.3,1.02.45,1.64.45.68,0,1.27-.17,1.78-.52s.85-.8,1.03-1.37h.92c-.13.54-.37,1.01-.73,1.42s-.79.73-1.31.95c-.52.23-1.09.34-1.7.34Z"/>
      <path class="cls-3" d="M55.26,66.48h-.86v-8.59h3.2c.86,0,1.55.22,2.05.67.5.44.75,1.05.75,1.82,0,.62-.15,1.13-.46,1.55-.31.42-.74.7-1.29.85l1.84,3.71h-.96l-1.75-3.56h-2.51v3.56ZM55.26,58.67v3.47h2.36c.59,0,1.05-.16,1.39-.47.33-.31.5-.74.5-1.27s-.17-.99-.52-1.28c-.34-.3-.81-.44-1.39-.44h-2.34Z"/>
      <path class="cls-3" d="M69.68,62.18c0,.87-.17,1.64-.52,2.3-.35.66-.83,1.19-1.45,1.57s-1.32.57-2.12.57-1.51-.19-2.13-.57c-.62-.38-1.1-.9-1.45-1.57-.34-.66-.52-1.43-.52-2.3s.17-1.64.52-2.31c.35-.67.83-1.19,1.45-1.57s1.32-.57,2.12-.57,1.52.19,2.13.57c.61.38,1.09.9,1.44,1.57.35.67.52,1.44.52,2.31ZM68.79,62.18c0-.72-.14-1.35-.41-1.89-.27-.54-.65-.96-1.12-1.27-.48-.3-1.03-.46-1.67-.46s-1.19.15-1.67.46c-.48.3-.85.73-1.12,1.27-.27.54-.4,1.17-.4,1.89s.13,1.34.4,1.88.64.97,1.12,1.27c.48.3,1.04.46,1.67.46s1.2-.15,1.67-.46c.48-.3.85-.73,1.12-1.27s.41-1.17.41-1.88Z"/>
      <path class="cls-3" d="M72.12,57.89v8.59h-.86v-8.59h.86ZM71.4,66.48v-.79h4.67v.79h-4.67Z"/>
      <path class="cls-3" d="M78.23,57.89v8.59h-.86v-8.59h.86ZM77.51,66.48v-.79h4.67v.79h-4.67Z"/>
      <path class="cls-3" d="M89.41,66.48h-2.62v-8.59h2.59c.86,0,1.62.18,2.27.54.65.36,1.15.86,1.51,1.51s.54,1.39.54,2.25-.18,1.61-.53,2.25-.86,1.15-1.5,1.51-1.4.54-2.26.54ZM87.66,58.3v7.78l-.4-.38h2.11c.7,0,1.31-.14,1.82-.43.51-.29.91-.69,1.19-1.22.28-.52.43-1.14.43-1.85s-.14-1.33-.43-1.86c-.28-.53-.68-.93-1.2-1.22s-1.13-.43-1.84-.43h-2.09l.4-.38Z"/>
      <path class="cls-3" d="M102.92,62.18c0,.87-.17,1.64-.52,2.3-.35.66-.83,1.19-1.45,1.57s-1.32.57-2.12.57-1.51-.19-2.13-.57c-.62-.38-1.1-.9-1.45-1.57-.34-.66-.52-1.43-.52-2.3s.17-1.64.52-2.31c.35-.67.83-1.19,1.45-1.57s1.32-.57,2.12-.57,1.52.19,2.13.57c.61.38,1.09.9,1.44,1.57.35.67.52,1.44.52,2.31ZM102.03,62.18c0-.72-.14-1.35-.41-1.89-.27-.54-.65-.96-1.12-1.27-.48-.3-1.03-.46-1.67-.46s-1.19.15-1.67.46c-.48.3-.85.73-1.12,1.27-.27.54-.4,1.17-.4,1.89s.13,1.34.4,1.88.64.97,1.12,1.27c.48.3,1.04.46,1.67.46s1.2-.15,1.67-.46c.48-.3.85-.73,1.12-1.27s.41-1.17.41-1.88Z"/>
      <path class="cls-3" d="M105.92,66.48l-2.56-8.59h.9l1.74,5.9c.06.21.12.42.17.65.05.22.11.48.16.77.07-.31.14-.57.2-.79s.13-.42.19-.63l1.87-5.9h.9l1.87,5.9c.06.22.13.44.19.67.06.23.13.48.19.75.06-.33.12-.6.18-.83.06-.22.11-.42.16-.58l1.78-5.92h.88l-2.58,8.59h-.82l-2.3-7.3-2.3,7.3h-.83Z"/>
      <path class="cls-3" d="M116.84,66.48h-.86v-8.59h.88l4.93,7.46h-.2v-7.46h.85v8.59h-.85l-4.94-7.46h.2v7.46Z"/>
      <path class="cls-3" d="M143.13,63.5l.49.5-3.71,3.72-3.71-3.72.5-.5,2.86,2.86v-8.54h.71v8.54l2.86-2.86Z"/>
      <path class="cls-3" d="M151.99,63.5l.49.5-3.71,3.72-3.71-3.72.5-.5,2.86,2.86v-8.54h.71v8.54l2.86-2.86Z"/>
      <path class="cls-3" d="M160.85,63.5l.49.5-3.71,3.72-3.71-3.72.5-.5,2.86,2.86v-8.54h.71v8.54l2.86-2.86Z"/>
    </g>
  </g>
</svg>